<?xml version="1.0" encoding="utf-8"?>
<!-- Generator: Adobe Illustrator 15.0.0, SVG Export Plug-In . SVG Version: 6.00 Build 0)  -->
<!DOCTYPE svg PUBLIC "-//W3C//DTD SVG 1.1//EN" "http://www.w3.org/Graphics/SVG/1.1/DTD/svg11.dtd">
<svg version="1.1" id="Layer_1" xmlns="http://www.w3.org/2000/svg" xmlns:xlink="http://www.w3.org/1999/xlink" x="0px" y="0px"
	 width="264.569px" height="114.938px" viewBox="0 0 264.569 114.938" enable-background="new 0 0 264.569 114.938"
	 xml:space="preserve">
<polygon fill="#1A1A18" points="0,0 0,20.753 24.744,20.753 24.744,114.938 46.294,114.938 46.294,20.753 71.038,20.753 71.038,0 
	"/>
<polygon fill="#1A1A18" points="88.96,0 88.96,20.753 129.667,20.753 129.667,46.294 93.75,46.294 93.75,67.046 129.667,67.046 
	129.667,94.186 87.363,94.186 87.39,114.938 151.219,114.938 151.219,0 "/>
<polygon fill="#1A1A18" points="243.816,0 192.254,76.625 191.936,76.625 191.936,0 170.385,0 170.385,114.938 191.137,114.938 
	242.699,38.313 243.018,38.313 243.018,114.938 264.569,114.938 264.569,0 "/>
</svg>
